<?xml version="1.0" encoding="UTF-8"?>
<svg id="Laag_1" data-name="Laag 1" xmlns="http://www.w3.org/2000/svg" viewBox="0 0 120.05 128.03">
  <defs>
    <style>
      .cls-1 {
        fill: #1d1d1b;
      }

      .cls-2 {
        fill: #fff;
      }

      .cls-3 {
        fill: #f5f5f5;
      }
    </style>
  </defs>
  <g>
    <path class="cls-3" d="M93.23,110.16l-84.82,19.82c-.8.12-1.46-.55-1.46-1.5V22.58c0-.95.65-1.81,1.46-1.93L93.23.82c.8-.12,1.46.55,1.46,1.5v105.91c0,.95-.65,1.81-1.46,1.93Z"/>
    <path class="cls-2" d="M8.22,130.8c-.47,0-.92-.17-1.29-.48-.5-.43-.79-1.1-.79-1.84V22.58c0-1.34.92-2.53,2.11-2.72L93.07.03h.03c.58-.09,1.15.07,1.59.46.5.43.79,1.1.79,1.84v105.91c0,1.34-.92,2.53-2.11,2.72l-84.82,19.82h-.03c-.1.02-.2.03-.3.03ZM93.37,1.62L8.56,21.44h-.03c-.36.06-.77.54-.77,1.14v105.91c0,.26.09.49.23.62.08.07.17.1.28.09l84.81-19.82h.03c.36-.06.77-.55.77-1.14V2.32c0-.26-.09-.49-.23-.62-.08-.07-.17-.1-.28-.09Z"/>
  </g>
  <g>
    <path class="cls-3" d="M111.25,116.58l-102.54,13.52c-.97.06-1.76-.66-1.76-1.61V22.58c0-.95.79-1.76,1.76-1.82L111.25,7.24c.97-.06,1.76.66,1.76,1.61v105.91c0,.95-.79,1.76-1.76,1.82Z"/>
    <path class="cls-2" d="M8.6,130.95c-.66,0-1.27-.24-1.73-.68-.49-.47-.77-1.1-.77-1.79V22.58c0-1.38,1.13-2.57,2.53-2.67L111.17,6.39h.03c.72-.04,1.39.19,1.9.67.5.47.77,1.1.77,1.79v105.91c0,1.38-1.13,2.57-2.53,2.67l-102.54,13.52h-.03c-.06,0-.11,0-.17,0ZM111.33,8.09L8.79,21.61h-.03c-.52.03-.96.48-.96.97v105.91c0,.21.08.4.23.54.16.15.38.22.6.21l102.53-13.51h.03c.52-.03.96-.48.96-.97V8.85c0-.27-.12-.44-.23-.54-.15-.15-.36-.22-.6-.21Z"/>
  </g>
  <g>
    <path class="cls-3" d="M117.44,123.47l-108.73,6.62c-.97.06-1.76-.66-1.76-1.61V22.58c0-.95.79-1.76,1.76-1.82l108.73-6.62c.97-.06,1.76.66,1.76,1.61v105.91c0,.95-.79,1.76-1.76,1.82Z"/>
    <path class="cls-2" d="M8.6,130.95c-.66,0-1.27-.24-1.73-.68-.49-.47-.77-1.1-.77-1.79V22.58c0-1.39,1.15-2.59,2.56-2.68l108.73-6.62c.72-.04,1.39.2,1.9.67.5.47.77,1.1.77,1.79v105.91c0,1.39-1.15,2.59-2.56,2.68l-108.73,6.62c-.06,0-.11,0-.17,0ZM117.55,14.98s-.04,0-.06,0L8.76,21.61c-.52.03-.96.48-.96.97v105.91c0,.21.08.4.23.54.16.15.38.23.62.21l108.73-6.62c.52-.03.96-.48.96-.97V15.74c0-.27-.12-.44-.23-.54-.15-.14-.35-.21-.57-.21Z"/>
  </g>
  <g>
    <path class="cls-1" d="M22.75,54.14c-.74.06-1.06-.25-1.03-1l.74-19.41c.03-.75.37-1.1,1.11-1.16l13.82-1.03c.75-.06,1.06.25,1.03,1l-.13,3.51c-.03.75-.37,1.1-1.11,1.16l-8.22.61-.09,2.31,5.81-.43c.74-.06,1.06.25,1.03,1l-.12,3.21c-.03.75-.37,1.1-1.11,1.16l-5.81.43-.1,2.58,8.22-.61c.75-.06,1.06.25,1.03,1l-.13,3.51c-.03.75-.37,1.1-1.11,1.16l-13.82,1.03Z"/>
    <path class="cls-1" d="M42.23,52.7c-.75.06-1.06-.25-1.03-1l.74-19.41c.03-.75.37-1.1,1.11-1.16l9.92-.74c4.47-.33,5.79,1.6,5.68,4.57l-.05,1.38c-.06,1.68-.53,2.91-1.8,3.54,2.17.08,3.54,1.56,3.44,4.08l-.24,6.35c-.03.75-.37,1.1-1.11,1.16l-4.62.34c-.74.06-1.06-.25-1.03-1l.17-4.58c.03-.9-.25-1.27-1.08-1.2l-4.17.31-.22,5.87c-.03.75-.37,1.1-1.11,1.16l-4.59.34ZM48.36,39.93l2.23-.17c1.04-.08,1.33-.7,1.36-1.51l.04-1.02c.03-.81-.21-1.39-1.26-1.31l-2.23.17-.15,3.83Z"/>
  </g>
  <g>
    <path class="cls-1" d="M54.87,56.94c.73-.12,1.07.15,1.1.87l.57,11.26c.06,1.25.11,2.18-.34,3.68l-1.26,4.18c-.17.61-.5,1.14-1.11,1.24l-3.88.63c-.64.1-1.18-.07-1.38-.65l-1.58-4.51c-.14-.36-.32-.45-.55-.41l-.26.04c-.23.04-.4.18-.5.58l-1.13,4.95c-.15.61-.57.97-1.18,1.07l-3.85.63c-.64.1-1.1-.26-1.34-.84l-1.66-3.77c-.6-1.34-.64-2.26-.71-3.51l-.57-11.2c-.04-.73.27-1.1,1-1.22l4.49-.73c.73-.12,1.07.15,1.1.87l.54,10.68,1.5-3.93c.29-.72.74-1.03,1.5-1.15l1.22-.2c.76-.12,1.24.03,1.59.65l1.88,3.38-.54-10.68c-.04-.73.24-1.09,1-1.22l4.34-.71Z"/>
    <path class="cls-1" d="M65.64,76.25l-4.28.7c-.73.12-1.07-.15-1.1-.87l-.39-7.66c-.06-1.16.22-2.67.9-4.83l2.2-7c.2-.71.65-1.07,1.44-1.2l7.84-1.28c.76-.12,1.24.09,1.51.72l2.87,6.17c.89,1.9,1.31,3.3,1.37,4.46l.39,7.66c.04.73-.27,1.1-1,1.22l-4.4.72c-.79.13-1.15-.13-1.19-.86l-.21-4.06-5.16.84.21,4.06c.04.73-.27,1.1-1,1.22ZM66.45,65.64l4.57-.75-1.59-4.19c-.16-.32-.35-.44-.58-.4l-.73.12c-.23.04-.4.21-.53.58l-1.14,4.63Z"/>
    <path class="cls-1" d="M82.54,73.49c-.73.12-1.07-.15-1.1-.87l-.17-3.39c-.04-.73.27-1.1,1-1.22l7.84-1.28c.5-.08.74-.5.71-.97-.03-.67-.31-.89-.81-.86l-4.4.1c-2.76.04-4.6-.83-4.76-4.08l-.16-3.05c-.17-3.31,1.98-5.47,5.77-6.09l8.16-1.33c.73-.12,1.07.15,1.1.87l.18,3.45c.04.72-.27,1.1-1,1.22l-6.79,1.11c-.5.08-.77.48-.74,1,.03.52.34.82.83.8l4.37-.13c2.76-.04,4.63.82,4.79,4.07l.16,3.05c.17,3.31-2.01,5.48-5.77,6.09l-9.21,1.5Z"/>
  </g>
  <g>
    <path class="cls-1" d="M25.49,106.38c-.71.05-1.01-.24-.98-.95l.7-18.47c.03-.71.35-1.05,1.06-1.1l13.15-.98c.71-.05,1.01.24.98.95l-.13,3.34c-.03.71-.35,1.05-1.06,1.1l-7.82.58-.08,2.19,5.53-.41c.71-.05,1.01.24.98.95l-.12,3.05c-.03.71-.35,1.05-1.06,1.1l-5.53.41-.09,2.45,7.82-.58c.71-.05,1.01.24.98.95l-.13,3.34c-.03.71-.35,1.05-1.06,1.1l-13.15.98Z"/>
    <path class="cls-1" d="M44.03,105c-.71.05-1.01-.24-.98-.95l.7-18.47c.03-.71.35-1.05,1.06-1.1l13.15-.98c.71-.05,1.01.24.98.95l-.13,3.34c-.03.71-.35,1.05-1.06,1.1l-7.82.58-.08,2.19,5.53-.41c.71-.05,1.01.24.98.95l-.12,3.05c-.03.71-.35,1.05-1.06,1.1l-5.53.41-.09,2.45,7.82-.58c.71-.05,1.01.24.98.95l-.13,3.34c-.03.71-.35,1.05-1.06,1.1l-13.15.98Z"/>
    <path class="cls-1" d="M62.57,103.63c-.71.05-1.01-.24-.98-.95l.7-18.47c.03-.71.35-1.05,1.06-1.1l2.95-.22c.74-.05,1.18.11,1.64.65l5.26,5.92.23-6.07c.03-.71.35-1.05,1.06-1.1l4.25-.32c.71-.05,1.01.24.98.95l-.7,18.47c-.03.71-.35,1.05-1.06,1.1l-4.25.32c-.71.05-1.01-.24-.98-.95l.13-3.51-4.62-5.54-.36,9.41c-.03.71-.35,1.05-1.06,1.1l-4.25.32Z"/>
    <path class="cls-1" d="M83.4,102.08c-.71.05-1.01-.24-.98-.95l.13-3.34c.03-.71.35-1.05,1.06-1.1l7.63-.57c.48-.04.75-.43.77-.88.02-.66-.22-.89-.7-.91l-4.23-.28c-2.65-.2-4.34-1.21-4.21-4.41l.11-2.99c.12-3.25,2.37-5.18,6.06-5.45l7.94-.59c.71-.05,1.01.24.98.95l-.13,3.39c-.03.71-.35,1.05-1.06,1.1l-6.6.49c-.48.04-.78.4-.8.91-.02.51.25.83.73.86l4.2.26c2.65.2,4.36,1.21,4.24,4.4l-.11,2.99c-.12,3.25-2.4,5.18-6.06,5.45l-8.96.67Z"/>
  </g>
  <g>
    <path class="cls-1" d="M78.18,116.63c-.72.14-1.06-.11-1.12-.82l-.51-5.77c-.07-.74.22-1.09.94-1.23l5.79-1.16c.72-.14,1.06.08,1.12.82l.51,5.77c.06.71-.22,1.09-.94,1.23l-5.79,1.16Z"/>
    <path class="cls-1" d="M89.2,114.42c-.72.14-1.06-.11-1.12-.82l-.51-5.77c-.07-.74.22-1.09.94-1.23l5.79-1.16c.72-.14,1.06.08,1.12.82l.51,5.77c.06.71-.22,1.09-.94,1.23l-5.79,1.16Z"/>
    <path class="cls-1" d="M100.21,112.21c-.72.14-1.06-.11-1.12-.82l-.51-5.77c-.07-.74.22-1.09.94-1.23l5.79-1.16c.72-.14,1.06.08,1.12.82l.51,5.77c.06.71-.22,1.09-.94,1.23l-5.79,1.16Z"/>
  </g>
</svg>